<?xml version="1.0" standalone="no"?>
<!DOCTYPE svg PUBLIC "-//W3C//DTD SVG 20010904//EN"
 "http://www.w3.org/TR/2001/REC-SVG-20010904/DTD/svg10.dtd">
<svg version="1.0" xmlns="http://www.w3.org/2000/svg"
 width="500.000000pt" height="500.000000pt" viewBox="0 0 500.000000 500.000000"
 preserveAspectRatio="xMidYMid meet">
<metadata>
Created by potrace 1.14, written by Peter Selinger 2001-2017
</metadata>
<g transform="translate(0.000000,500.000000) scale(0.100000,-0.100000)"
fill="#000000" stroke="none">
<path d="M3400 3940 c0 -13 -80 -95 -105 -107 -11 -6 -31 -9 -44 -7 -13 3 -29
0 -35 -6 -7 -5 -27 -10 -44 -12 -18 -1 -32 -5 -32 -8 0 -7 -48 -28 -75 -33
-11 -2 -27 -7 -35 -10 -46 -18 -119 -40 -145 -43 -16 -2 -31 -9 -33 -14 -2 -6
-11 -10 -21 -10 -9 0 -22 -5 -29 -12 -7 -7 -12 -9 -12 -6 0 4 -15 2 -32 -3
-18 -5 -46 -12 -63 -15 -16 -3 -34 -9 -40 -14 -6 -5 -20 -7 -31 -4 -13 4 -32
-4 -51 -20 -23 -19 -33 -22 -41 -14 -9 9 -12 9 -12 0 0 -6 -17 -14 -37 -18
-21 -4 -43 -11 -50 -16 -7 -5 -16 -7 -21 -4 -6 3 -15 -1 -21 -8 -7 -8 -23 -13
-37 -11 -13 1 -28 -4 -32 -12 -5 -7 -19 -12 -33 -10 -13 2 -35 -3 -49 -12 -13
-9 -27 -15 -30 -15 -3 1 -16 -3 -30 -8 -14 -6 -42 -12 -62 -15 -21 -3 -38 -9
-38 -13 0 -8 -36 -17 -105 -27 -22 -3 -46 -10 -53 -16 -7 -5 -15 -7 -19 -4 -3
4 -15 1 -27 -5 -11 -7 -30 -13 -40 -15 -11 -2 -24 -7 -30 -12 -6 -5 -28 -8
-50 -7 -24 2 -47 -4 -62 -16 -13 -11 -33 -21 -45 -23 -40 -8 -138 -59 -141
-75 -6 -23 2 -50 15 -50 7 0 25 -11 41 -25 22 -19 27 -30 22 -50 -7 -26 21
-65 47 -65 7 0 19 -19 27 -42 11 -33 20 -43 38 -44 12 -1 22 3 22 8 0 6 6 8
13 5 7 -3 21 1 32 9 10 8 27 14 37 14 10 0 18 4 18 8 0 5 14 7 30 6 17 -1 33
2 36 7 3 5 16 9 28 9 13 0 39 6 57 14 19 7 39 11 46 9 6 -2 14 1 18 6 3 6 19
11 36 11 16 0 29 5 29 10 0 6 11 10 24 10 14 0 27 4 30 9 5 8 54 23 86 26 8 1
20 -3 27 -7 6 -5 14 -5 18 2 3 5 22 10 41 10 19 0 37 6 40 13 3 9 16 12 34 9
21 -3 32 1 36 12 5 12 10 13 25 5 15 -8 30 -5 62 9 73 34 98 42 108 37 5 -4 9
-1 9 6 0 7 3 9 7 6 3 -4 12 -2 20 4 7 6 13 8 13 5 0 -4 9 -2 20 4 16 8 20 8
20 -4 0 -8 -4 -17 -9 -20 -5 -3 -7 -14 -5 -24 5 -20 -42 -76 -57 -67 -5 4 -12
-2 -16 -11 -4 -10 -15 -27 -24 -39 -10 -11 -26 -30 -37 -42 -10 -13 -22 -20
-25 -16 -7 6 -17 -14 -21 -41 -2 -15 -56 -64 -56 -51 0 3 -14 -9 -30 -27 -17
-18 -29 -37 -26 -43 4 -11 -19 -37 -27 -29 -2 3 -12 -7 -21 -21 -9 -14 -21
-23 -26 -20 -6 4 -10 -1 -10 -9 0 -8 -12 -21 -27 -28 -15 -7 -29 -22 -32 -33
-2 -11 -12 -26 -22 -33 -11 -7 -19 -18 -19 -23 0 -11 -62 -74 -70 -71 -3 1 -5
-8 -5 -20 0 -16 -10 -28 -33 -38 -18 -9 -30 -19 -27 -22 4 -3 -4 -9 -16 -13
-28 -9 -65 -43 -56 -51 3 -4 0 -19 -9 -35 -13 -26 -25 -34 -46 -30 -5 0 -8 -3
-8 -9 0 -5 -7 -10 -15 -10 -8 0 -15 -6 -15 -14 0 -7 -13 -27 -29 -44 -16 -16
-27 -33 -24 -36 4 -3 1 -6 -5 -6 -7 0 -11 -3 -11 -7 3 -21 -2 -33 -16 -33 -17
0 -95 -102 -95 -124 0 -8 5 -16 11 -18 7 -2 7 -12 0 -31 -6 -16 -16 -25 -21
-22 -6 3 -16 0 -23 -7 -8 -7 -26 -22 -41 -33 -46 -33 -57 -46 -63 -76 -3 -16
-9 -29 -14 -29 -5 0 -9 -5 -9 -11 0 -6 -6 -17 -14 -25 -8 -7 -16 -19 -19 -26
-3 -8 -148 130 -346 327 l-341 340 0 -302 0 -302 -47 6 c-129 15 -262 71 -351
149 -152 133 -231 372 -188 568 27 119 77 209 166 297 127 126 268 181 444
175 157 -6 283 -63 396 -176 173 -173 222 -436 124 -658 l-25 -56 99 -99 100
-100 36 66 c40 70 83 185 92 244 3 21 9 56 13 79 8 41 6 183 -2 239 -57 367
-355 667 -719 725 -68 11 -251 9 -298 -3 -8 -2 -31 -7 -50 -11 -128 -27 -297
-124 -409 -235 -117 -115 -212 -298 -238 -460 -15 -87 -5 -332 14 -363 2 -5 6
-17 8 -27 2 -11 14 -46 27 -78 89 -219 261 -394 474 -483 157 -65 369 -83 531
-45 81 19 76 9 75 124 l0 63 61 -58 c33 -33 80 -80 104 -106 33 -34 50 -45 69
-43 13 1 26 -1 29 -4 4 -8 -61 -93 -80 -104 -7 -4 -19 -24 -25 -45 -17 -52
-49 -102 -66 -102 -8 0 -14 -7 -14 -15 0 -7 -6 -18 -13 -22 -7 -4 -23 -22 -35
-39 -17 -24 -19 -34 -9 -44 10 -10 9 -11 -3 -5 -13 8 -13 7 0 -10 8 -10 16
-32 17 -49 5 -76 13 -90 65 -115 62 -30 174 -34 193 -7 6 8 16 12 21 8 10 -9
107 21 99 30 -3 3 8 4 25 3 20 -2 34 3 37 11 3 8 13 14 22 14 9 0 22 5 29 12
7 7 12 9 12 5 0 -4 14 -1 30 8 17 9 30 20 30 26 0 6 4 7 10 4 11 -7 98 21 120
39 8 6 27 18 42 25 17 9 24 19 21 29 -5 12 -3 13 12 5 14 -8 35 -1 94 29 42
22 81 45 88 50 7 5 17 7 23 3 5 -3 13 0 16 8 4 13 20 20 64 32 3 0 20 10 38
22 19 11 41 20 50 18 10 -1 26 8 37 21 11 12 52 35 90 50 39 15 75 31 82 36 7
6 17 7 23 3 5 -3 10 -1 10 5 0 6 5 8 10 5 6 -3 10 -2 10 4 0 6 7 8 15 5 8 -3
25 5 38 18 13 13 29 22 35 20 7 -2 9 5 7 17 -2 14 1 21 11 21 8 0 14 -4 14
-10 0 -5 5 -10 11 -10 8 0 8 4 0 14 -9 11 -4 18 24 35 20 11 38 21 40 21 2 0
16 5 32 12 15 6 30 12 33 13 3 0 14 6 25 12 11 6 23 12 27 12 4 1 23 8 42 16
20 8 40 15 46 15 5 0 10 5 10 10 0 6 11 10 24 10 14 0 28 5 31 10 4 6 10 8 15
5 5 -3 11 -1 15 5 4 6 11 8 16 5 5 -4 9 -1 9 4 0 6 9 11 20 11 11 0 20 5 20
10 0 6 6 10 14 10 8 0 21 7 29 15 8 8 24 12 36 10 12 -2 25 3 31 13 5 9 10 12
10 5 0 -11 40 -6 50 6 7 9 83 42 103 45 9 1 19 5 23 9 19 18 24 -19 24 -172
l0 -167 163 0 162 1 1 219 c2 202 3 220 20 230 11 6 21 11 24 12 6 1 37 12 68
25 13 5 31 9 42 9 10 0 21 4 24 8 9 15 -83 13 -133 -2 l-47 -14 2 27 c1 14 3
43 3 65 1 30 4 37 17 32 8 -3 12 -2 9 4 -6 9 8 15 29 11 11 -2 26 19 26 36 0
7 -6 11 -12 9 -7 -3 -28 -7 -47 -10 -29 -5 -32 -4 -21 9 7 9 15 13 18 10 3 -3
11 0 18 5 6 6 21 12 31 15 18 3 20 -3 22 -52 1 -31 4 -60 7 -64 3 -5 54 -9
113 -9 107 0 108 0 132 -29 13 -15 126 -145 250 -288 l227 -259 196 0 c133 0
196 3 196 10 0 6 -13 25 -28 41 -15 17 -52 59 -82 94 -30 35 -68 78 -85 96
-16 17 -57 62 -90 100 -33 37 -70 80 -83 94 -13 14 -42 48 -65 75 -23 27 -52
58 -64 69 -13 12 -23 24 -23 28 0 4 24 15 53 23 84 25 85 28 38 77 -23 24 -67
75 -99 112 l-57 68 -44 -7 c-25 -3 -145 -6 -268 -5 l-223 0 0 -48 c0 -45 -2
-50 -27 -57 -58 -16 -63 -14 -64 30 -3 136 2 620 6 624 3 3 129 5 280 4 309 0
341 -6 414 -68 23 -20 50 -53 61 -73 17 -34 22 -56 34 -131 8 -57 -38 -172
-83 -207 -15 -11 8 -41 163 -210 35 -38 43 -35 110 33 51 53 97 141 120 229
24 93 17 261 -15 351 -70 195 -225 322 -449 368 -48 10 -184 14 -517 15 l-453
2 0 -531 c0 -292 -3 -529 -8 -526 -4 2 -29 -6 -54 -18 -27 -13 -51 -19 -56
-14 -5 5 -14 2 -22 -7 -7 -8 -23 -15 -36 -15 -13 0 -24 -4 -24 -9 0 -6 -9 -8
-20 -6 -11 2 -20 0 -20 -6 0 -5 -3 -8 -7 -7 -9 1 -39 -9 -63 -21 -8 -4 -23 -7
-33 -5 -9 1 -15 -2 -11 -7 3 -5 -2 -10 -10 -10 -9 -1 -19 -2 -23 -4 -5 -1 -21
-5 -38 -10 -16 -4 -35 -12 -42 -17 -7 -5 -17 -7 -23 -3 -5 3 -13 -1 -16 -9 -3
-9 -14 -16 -24 -16 -11 0 -22 -5 -26 -11 -3 -6 -15 -8 -26 -6 -11 3 -21 0 -25
-9 -3 -8 -11 -14 -19 -14 -8 0 -14 -4 -14 -8 0 -4 -8 -8 -18 -9 -32 -3 -47 -8
-57 -21 -6 -7 -26 -14 -45 -16 -43 -5 -70 -15 -70 -27 0 -5 -8 -9 -19 -9 -10
0 -34 -7 -54 -15 -19 -8 -37 -11 -41 -8 -3 4 -6 2 -6 -4 0 -10 -20 -19 -60
-28 -8 -2 -20 -11 -26 -20 -6 -9 -22 -18 -35 -20 -12 -3 -26 -10 -31 -17 -4
-7 -8 -9 -8 -4 0 6 -5 5 -12 -2 -7 -7 -20 -12 -30 -12 -10 0 -18 -3 -18 -8 0
-9 -84 -45 -94 -39 -2 1 -13 -7 -25 -17 -12 -11 -21 -16 -21 -12 0 9 -93 -43
-102 -58 -4 -6 -8 -8 -8 -3 0 4 -11 0 -25 -9 -14 -9 -25 -14 -25 -10 0 3 -17
-3 -37 -14 -20 -11 -38 -18 -40 -16 -9 9 11 35 33 40 13 4 23 10 21 15 -4 14
47 90 61 91 6 0 11 3 10 8 -4 20 16 62 33 67 12 4 19 16 19 31 0 13 3 24 8 24
17 0 61 51 56 65 -6 13 6 20 29 16 4 0 6 5 5 11 -2 7 3 12 10 10 6 -1 11 1 11
5 -5 31 42 103 67 103 6 0 9 14 8 30 -1 17 2 30 7 30 17 0 74 53 74 69 0 4 8
15 18 25 9 10 17 14 17 10 0 -4 9 2 20 14 11 12 20 24 20 27 0 3 15 20 34 38
18 18 36 43 40 55 4 12 11 20 16 17 5 -3 18 11 30 30 12 19 28 35 36 35 9 0
12 5 9 10 -3 6 -2 10 4 10 6 0 13 11 17 25 4 14 9 24 11 21 6 -5 26 10 51 38
9 10 25 27 35 38 9 10 17 21 17 24 0 4 10 16 23 28 13 12 26 29 30 39 4 10 15
20 24 24 10 4 23 14 30 22 6 9 17 16 25 16 7 0 13 10 13 22 0 13 6 28 13 35 7
7 12 8 12 4 0 -5 10 6 23 24 12 19 26 32 30 31 11 -3 57 50 57 65 0 13 50 61
50 48 0 -5 5 -1 11 8 5 10 8 19 7 22 -5 7 35 46 47 46 7 0 15 7 19 15 3 8 12
15 21 15 9 0 15 9 15 23 0 22 80 122 80 101 0 -5 5 -1 11 9 6 9 14 15 19 12 5
-3 12 5 16 19 3 14 15 27 29 30 13 3 27 15 30 26 3 11 13 20 21 20 8 0 14 5
14 11 0 5 4 8 9 4 5 -3 17 13 27 35 10 22 26 42 36 46 10 3 33 19 50 35 18 16
38 29 45 29 15 0 44 40 37 52 -3 4 2 8 10 8 9 0 16 5 16 11 0 5 5 7 10 4 6 -3
10 -3 11 2 0 4 2 18 3 31 2 12 11 29 22 37 25 19 10 44 -42 69 -72 34 -89 45
-90 55 -1 6 -2 15 -3 20 0 5 -12 8 -26 6 -14 -1 -25 1 -25 6 0 5 -7 6 -15 3
-8 -3 -13 -11 -12 -17 1 -6 -7 -12 -18 -14 -11 -1 -15 0 -10 2 11 6 12 66 1
83 -9 15 -46 16 -46 2z m-5 -80 c-10 -11 -21 -17 -24 -14 -3 4 0 9 7 11 6 3
10 9 6 14 -3 5 3 9 12 9 16 0 16 -2 -1 -20z m-635 -590 c0 -5 -2 -10 -4 -10
-3 0 -8 5 -11 10 -3 6 -1 10 4 10 6 0 11 -4 11 -10z m35 -109 c-3 -6 -11 -11
-17 -11 -6 0 -6 6 2 15 14 17 26 13 15 -4z m-855 -21 c0 -5 -2 -10 -4 -10 -3
0 -8 5 -11 10 -3 6 -1 10 4 10 6 0 11 -4 11 -10z m-186 -55 c3 -8 1 -15 -4
-15 -6 0 -10 7 -10 15 0 8 2 15 4 15 2 0 6 -7 10 -15z m-59 -25 c-3 -5 -10
-10 -16 -10 -5 0 -9 5 -9 10 0 6 7 10 16 10 8 0 12 -4 9 -10z m1760 -810 c3
-6 -1 -7 -9 -4 -18 7 -21 14 -7 14 6 0 13 -4 16 -10z m1 -227 c-3 -8 -10 -11
-16 -8 -6 3 -17 -1 -26 -10 -12 -12 -19 -13 -30 -4 -11 9 -14 9 -14 0 0 -7 -4
-10 -9 -6 -5 3 -13 1 -16 -5 -4 -6 -14 -10 -23 -9 -10 1 -30 -3 -46 -10 -16
-6 -35 -10 -42 -7 -6 2 -21 -2 -33 -10 -11 -8 -21 -12 -21 -8 0 3 -6 1 -13 -5
-8 -6 -17 -8 -20 -4 -4 3 -7 1 -7 -5 0 -6 -7 -9 -15 -6 -9 4 -15 0 -15 -8 0
-8 -6 -15 -12 -16 -40 -3 -58 -7 -58 -12 0 -3 -10 -6 -21 -7 -12 -1 -26 -6
-30 -10 -11 -11 -139 -3 -139 9 0 6 15 8 34 6 20 -2 34 0 33 6 -1 6 4 11 11
12 6 1 14 3 17 4 3 1 8 3 13 4 4 1 18 8 32 16 14 8 27 15 30 15 3 0 15 6 26
13 12 6 24 9 26 6 8 -7 78 28 78 39 0 5 6 4 14 -2 11 -9 17 -9 27 1 8 7 23 14
33 16 10 2 25 10 32 17 8 7 23 11 34 8 12 -3 20 0 20 7 0 7 8 9 21 5 15 -5 19
-4 15 4 -4 6 -4 11 1 12 27 2 59 11 82 22 25 12 26 11 29 -21 2 -19 1 -41 -2
-49z m-438 32 c-3 -3 -9 2 -12 12 -6 14 -5 15 5 6 7 -7 10 -15 7 -18z m48 -2
c-4 -4 -12 -1 -19 7 -9 10 -9 11 1 6 7 -4 12 -2 13 6 0 11 2 11 6 0 3 -7 2
-16 -1 -19z m103 14 c8 -10 7 -14 -4 -14 -8 0 -15 6 -15 14 0 7 2 13 4 13 2 0
9 -6 15 -13z m-568 -190 c-13 -13 -26 -3 -16 12 3 6 11 8 17 5 6 -4 6 -10 -1
-17z"/>
</g>
</svg>
